<svg id="visual" viewBox="0 0 1000 200" width="1000" height="200" xmlns="http://www.w3.org/2000/svg" xmlns:xlink="http://www.w3.org/1999/xlink" version="1.1"><rect x="0" y="0" width="1000" height="200" fill="#FFFFFF"></rect><path d="M0 68L41.7 65.8C83.3 63.7 166.7 59.3 250 64.8C333.3 70.3 416.7 85.7 500 86C583.3 86.3 666.7 71.7 750 67C833.3 62.3 916.7 67.7 958.3 70.3L1000 73L1000 201L958.3 201C916.7 201 833.3 201 750 201C666.7 201 583.3 201 500 201C416.7 201 333.3 201 250 201C166.7 201 83.3 201 41.7 201L0 201Z" fill="#ffa404"></path><path d="M0 78L41.7 83.8C83.3 89.7 166.7 101.3 250 101.8C333.3 102.3 416.7 91.7 500 88.8C583.3 86 666.7 91 750 94.2C833.3 97.3 916.7 98.7 958.3 99.3L1000 100L1000 201L958.3 201C916.7 201 833.3 201 750 201C666.7 201 583.3 201 500 201C416.7 201 333.3 201 250 201C166.7 201 83.3 201 41.7 201L0 201Z" fill="#f1a312"></path><path d="M0 123L41.7 122.2C83.3 121.3 166.7 119.7 250 121.3C333.3 123 416.7 128 500 127.3C583.3 126.7 666.7 120.3 750 123.3C833.3 126.3 916.7 138.7 958.3 144.8L1000 151L1000 201L958.3 201C916.7 201 833.3 201 750 201C666.7 201 583.3 201 500 201C416.7 201 333.3 201 250 201C166.7 201 83.3 201 41.7 201L0 201Z" fill="#e4a21d"></path><path d="M0 147L41.7 149.8C83.3 152.7 166.7 158.3 250 159.7C333.3 161 416.7 158 500 158.2C583.3 158.3 666.7 161.7 750 161.8C833.3 162 916.7 159 958.3 157.5L1000 156L1000 201L958.3 201C916.7 201 833.3 201 750 201C666.7 201 583.3 201 500 201C416.7 201 333.3 201 250 201C166.7 201 83.3 201 41.7 201L0 201Z" fill="#d7a126"></path></svg>