<svg id="visual" viewBox="0 0 1200 300" width="1200" height="300" xmlns="http://www.w3.org/2000/svg" xmlns:xlink="http://www.w3.org/1999/xlink" version="1.1"><rect x="0" y="0" width="1200" height="300" fill="#13e89a"></rect><path d="M0 77L50 84.3C100 91.7 200 106.3 300 118C400 129.7 500 138.3 600 134.7C700 131 800 115 900 114.5C1000 114 1100 129 1150 136.5L1200 144L1200 301L1150 301C1100 301 1000 301 900 301C800 301 700 301 600 301C500 301 400 301 300 301C200 301 100 301 50 301L0 301Z" fill="#05ff7e"></path><path d="M0 125L50 132.7C100 140.3 200 155.7 300 160C400 164.3 500 157.7 600 157.3C700 157 800 163 900 166.5C1000 170 1100 171 1150 171.5L1200 172L1200 301L1150 301C1100 301 1000 301 900 301C800 301 700 301 600 301C500 301 400 301 300 301C200 301 100 301 50 301L0 301Z" fill="#00b0ac"></path><path d="M0 225L50 223.7C100 222.3 200 219.7 300 217C400 214.3 500 211.7 600 205.2C700 198.7 800 188.3 900 184.2C1000 180 1100 182 1150 183L1200 184L1200 301L1150 301C1100 301 1000 301 900 301C800 301 700 301 600 301C500 301 400 301 300 301C200 301 100 301 50 301L0 301Z" fill="#005e74"></path><path d="M0 221L50 226.5C100 232 200 243 300 245.2C400 247.3 500 240.7 600 239C700 237.3 800 240.7 900 243.3C1000 246 1100 248 1150 249L1200 250L1200 301L1150 301C1100 301 1000 301 900 301C800 301 700 301 600 301C500 301 400 301 300 301C200 301 100 301 50 301L0 301Z" fill="#001829"></path></svg>