<svg id="visual" viewBox="0 0 1200 400" width="1200" height="400" xmlns="http://www.w3.org/2000/svg" xmlns:xlink="http://www.w3.org/1999/xlink" version="1.1"><rect x="0" y="0" width="1200" height="400" fill="#B0235F"></rect><path d="M0 150L171 108L343 172L514 117L686 161L857 88L1029 135L1200 151L1200 401L1029 401L857 401L686 401L514 401L343 401L171 401L0 401Z" fill="#941d50"></path><path d="M0 195L171 164L343 160L514 213L686 128L857 138L1029 223L1200 195L1200 401L1029 401L857 401L686 401L514 401L343 401L171 401L0 401Z" fill="#6d1d53"></path><path d="M0 205L171 227L343 202L514 267L686 222L857 231L1029 223L1200 242L1200 401L1029 401L857 401L686 401L514 401L343 401L171 401L0 401Z" fill="#461d4b"></path><path d="M0 255L171 283L343 256L514 264L686 269L857 324L1029 314L1200 280L1200 401L1029 401L857 401L686 401L514 401L343 401L171 401L0 401Z" fill="#22183b"></path><path d="M0 338L171 312L343 318L514 353L686 324L857 365L1029 314L1200 340L1200 401L1029 401L857 401L686 401L514 401L343 401L171 401L0 401Z" fill="#060c24"></path></svg>