<svg id="visual" viewBox="0 0 1200 200" width="1200" height="200" xmlns="http://www.w3.org/2000/svg" xmlns:xlink="http://www.w3.org/1999/xlink" version="1.1"><rect x="0" y="0" width="1200" height="200" fill="#001829"></rect><path d="M0 83L50 81.2C100 79.3 200 75.7 300 76.2C400 76.7 500 81.3 600 86.8C700 92.3 800 98.7 900 93.2C1000 87.7 1100 70.3 1150 61.7L1200 53L1200 201L1150 201C1100 201 1000 201 900 201C800 201 700 201 600 201C500 201 400 201 300 201C200 201 100 201 50 201L0 201Z" fill="#3b000e"></path><path d="M0 96L50 99.3C100 102.7 200 109.3 300 111.2C400 113 500 110 600 110.3C700 110.7 800 114.3 900 114.2C1000 114 1100 110 1150 108L1200 106L1200 201L1150 201C1100 201 1000 201 900 201C800 201 700 201 600 201C500 201 400 201 300 201C200 201 100 201 50 201L0 201Z" fill="#76222d"></path><path d="M0 129L50 128.2C100 127.3 200 125.7 300 124.8C400 124 500 124 600 125C700 126 800 128 900 130.2C1000 132.3 1100 134.7 1150 135.8L1200 137L1200 201L1150 201C1100 201 1000 201 900 201C800 201 700 201 600 201C500 201 400 201 300 201C200 201 100 201 50 201L0 201Z" fill="#b7484b"></path><path d="M0 164L50 160.5C100 157 200 150 300 151.5C400 153 500 163 600 164.2C700 165.3 800 157.7 900 154.8C1000 152 1100 154 1150 155L1200 156L1200 201L1150 201C1100 201 1000 201 900 201C800 201 700 201 600 201C500 201 400 201 300 201C200 201 100 201 50 201L0 201Z" fill="#fa7268"></path></svg>