<svg id="visual" viewBox="0 0 1000 300" width="1000" height="300" xmlns="http://www.w3.org/2000/svg" xmlns:xlink="http://www.w3.org/1999/xlink" version="1.1"><rect x="0" y="0" width="1000" height="300" fill="#202731"></rect><path d="M0 70L41.7 83.5C83.3 97 166.7 124 250 127C333.3 130 416.7 109 500 106.5C583.3 104 666.7 120 750 129.8C833.3 139.7 916.7 143.3 958.3 145.2L1000 147L1000 301L958.3 301C916.7 301 833.3 301 750 301C666.7 301 583.3 301 500 301C416.7 301 333.3 301 250 301C166.7 301 83.3 301 41.7 301L0 301Z" fill="#4a755c"></path><path d="M0 119L41.7 123.5C83.3 128 166.7 137 250 148.3C333.3 159.7 416.7 173.3 500 179.2C583.3 185 666.7 183 750 174C833.3 165 916.7 149 958.3 141L1000 133L1000 301L958.3 301C916.7 301 833.3 301 750 301C666.7 301 583.3 301 500 301C416.7 301 333.3 301 250 301C166.7 301 83.3 301 41.7 301L0 301Z" fill="#499a70"></path><path d="M0 222L41.7 215.5C83.3 209 166.7 196 250 191.3C333.3 186.7 416.7 190.3 500 189.3C583.3 188.3 666.7 182.7 750 179.8C833.3 177 916.7 177 958.3 177L1000 177L1000 301L958.3 301C916.7 301 833.3 301 750 301C666.7 301 583.3 301 500 301C416.7 301 333.3 301 250 301C166.7 301 83.3 301 41.7 301L0 301Z" fill="#3ec084"></path><path d="M0 230L41.7 234C83.3 238 166.7 246 250 250.8C333.3 255.7 416.7 257.3 500 255.7C583.3 254 666.7 249 750 241.8C833.3 234.7 916.7 225.3 958.3 220.7L1000 216L1000 301L958.3 301C916.7 301 833.3 301 750 301C666.7 301 583.3 301 500 301C416.7 301 333.3 301 250 301C166.7 301 83.3 301 41.7 301L0 301Z" fill="#13e89a"></path></svg>