<svg id="visual" viewBox="0 0 1200 700" width="1200" height="700" xmlns="http://www.w3.org/2000/svg" xmlns:xlink="http://www.w3.org/1999/xlink" version="1.1"><g stroke-width="1" stroke-linejoin="bevel"><path d="M562.3 310L626.7 256.3L559.3 197.3Z" fill="#b88d2b" stroke="#b88d2b"></path><path d="M559.3 197.3L437 222.3L562.3 310Z" fill="#d39e27" stroke="#d39e27"></path><path d="M626.7 256.3L660.7 153.7L559.3 197.3Z" fill="#c1932a" stroke="#c1932a"></path><path d="M559.3 197.3L660.7 153.7L493.3 153.7Z" fill="#c1932a" stroke="#c1932a"></path><path d="M493.3 153.7L437 222.3L559.3 197.3Z" fill="#ca9929" stroke="#ca9929"></path><path d="M562.3 310L688.7 355L626.7 256.3Z" fill="#ce9b28" stroke="#ce9b28"></path><path d="M626.7 256.3L786 241.3L660.7 153.7Z" fill="#d39e27" stroke="#d39e27"></path><path d="M437 222.3L402 328L562.3 310Z" fill="#d39e27" stroke="#d39e27"></path><path d="M562.3 310L631.7 458.7L688.7 355Z" fill="#af882c" stroke="#af882c"></path><path d="M526.3 467.7L631.7 458.7L562.3 310Z" fill="#ab852c" stroke="#ab852c"></path><path d="M783 340L786 241.3L688.7 355Z" fill="#c1932a" stroke="#c1932a"></path><path d="M688.7 355L786 241.3L626.7 256.3Z" fill="#b88d2b" stroke="#b88d2b"></path><path d="M402 328L526.3 467.7L562.3 310Z" fill="#d7a126" stroke="#d7a126"></path><path d="M801 505.7L783 340L688.7 355Z" fill="#b48b2b" stroke="#b48b2b"></path><path d="M493.3 153.7L373 115.7L437 222.3Z" fill="#d39e27" stroke="#d39e27"></path><path d="M437 222.3L277.7 210.3L402 328Z" fill="#ab852c" stroke="#ab852c"></path><path d="M411 0L373 115.7L493.3 153.7Z" fill="#d39e27" stroke="#d39e27"></path><path d="M786 241.3L799 146.7L660.7 153.7Z" fill="#b88d2b" stroke="#b88d2b"></path><path d="M660.7 153.7L555.3 0L493.3 153.7Z" fill="#af882c" stroke="#af882c"></path><path d="M897.3 217.3L799 146.7L786 241.3Z" fill="#ca9929" stroke="#ca9929"></path><path d="M633.7 0L555.3 0L660.7 153.7Z" fill="#b88d2b" stroke="#b88d2b"></path><path d="M784 0L633.7 0L660.7 153.7Z" fill="#ca9929" stroke="#ca9929"></path><path d="M373 115.7L277.7 210.3L437 222.3Z" fill="#b48b2b" stroke="#b48b2b"></path><path d="M402 328L375 486.7L526.3 467.7Z" fill="#c59629" stroke="#c59629"></path><path d="M277.7 210.3L279.7 322L402 328Z" fill="#c1932a" stroke="#c1932a"></path><path d="M555.3 0L411 0L493.3 153.7Z" fill="#af882c" stroke="#af882c"></path><path d="M373 115.7L246.7 87.7L277.7 210.3Z" fill="#bd902a" stroke="#bd902a"></path><path d="M279.7 322L375 486.7L402 328Z" fill="#ce9b28" stroke="#ce9b28"></path><path d="M703.7 598.3L801 505.7L631.7 458.7Z" fill="#b88d2b" stroke="#b88d2b"></path><path d="M783 340L897.3 217.3L786 241.3Z" fill="#d7a126" stroke="#d7a126"></path><path d="M799 146.7L784 0L660.7 153.7Z" fill="#ab852c" stroke="#ab852c"></path><path d="M896.3 127.7L784 0L799 146.7Z" fill="#d39e27" stroke="#d39e27"></path><path d="M631.7 458.7L801 505.7L688.7 355Z" fill="#c1932a" stroke="#c1932a"></path><path d="M783 340L972.3 327L897.3 217.3Z" fill="#c1932a" stroke="#c1932a"></path><path d="M501.3 605.3L631.7 458.7L526.3 467.7Z" fill="#bd902a" stroke="#bd902a"></path><path d="M897.3 217.3L896.3 127.7L799 146.7Z" fill="#bd902a" stroke="#bd902a"></path><path d="M375 486.7L501.3 605.3L526.3 467.7Z" fill="#c59629" stroke="#c59629"></path><path d="M268.7 0L246.7 87.7L373 115.7Z" fill="#ab852c" stroke="#ab852c"></path><path d="M277.7 210.3L162.3 193.3L279.7 322Z" fill="#c1932a" stroke="#c1932a"></path><path d="M501.3 605.3L703.7 598.3L631.7 458.7Z" fill="#d7a126" stroke="#d7a126"></path><path d="M116.3 320L253.7 476.7L279.7 322Z" fill="#d7a126" stroke="#d7a126"></path><path d="M279.7 322L253.7 476.7L375 486.7Z" fill="#b48b2b" stroke="#b48b2b"></path><path d="M375 486.7L393 608.3L501.3 605.3Z" fill="#ab852c" stroke="#ab852c"></path><path d="M411 0L268.7 0L373 115.7Z" fill="#ca9929" stroke="#ca9929"></path><path d="M278.7 569.3L393 608.3L375 486.7Z" fill="#b88d2b" stroke="#b88d2b"></path><path d="M703.7 598.3L817 579.3L801 505.7Z" fill="#ab852c" stroke="#ab852c"></path><path d="M962.3 436.7L972.3 327L783 340Z" fill="#b88d2b" stroke="#b88d2b"></path><path d="M962.3 436.7L783 340L801 505.7Z" fill="#ab852c" stroke="#ab852c"></path><path d="M897.3 217.3L1077.7 126.7L896.3 127.7Z" fill="#d7a126" stroke="#d7a126"></path><path d="M163.3 114.7L162.3 193.3L246.7 87.7Z" fill="#c59629" stroke="#c59629"></path><path d="M246.7 87.7L162.3 193.3L277.7 210.3Z" fill="#af882c" stroke="#af882c"></path><path d="M1048.7 0L906.3 0L896.3 127.7Z" fill="#af882c" stroke="#af882c"></path><path d="M896.3 127.7L906.3 0L784 0Z" fill="#ab852c" stroke="#ab852c"></path><path d="M171.3 0L163.3 114.7L246.7 87.7Z" fill="#ca9929" stroke="#ca9929"></path><path d="M253.7 476.7L278.7 569.3L375 486.7Z" fill="#ce9b28" stroke="#ce9b28"></path><path d="M123.3 555.3L278.7 569.3L253.7 476.7Z" fill="#bd902a" stroke="#bd902a"></path><path d="M817 579.3L962.3 436.7L801 505.7Z" fill="#d7a126" stroke="#d7a126"></path><path d="M501.3 605.3L570.3 700L703.7 598.3Z" fill="#ab852c" stroke="#ab852c"></path><path d="M703.7 598.3L838 700L817 579.3Z" fill="#c59629" stroke="#c59629"></path><path d="M405 700L570.3 700L501.3 605.3Z" fill="#ca9929" stroke="#ca9929"></path><path d="M405 700L501.3 605.3L393 608.3Z" fill="#c1932a" stroke="#c1932a"></path><path d="M570.3 700L640.7 700L703.7 598.3Z" fill="#c59629" stroke="#c59629"></path><path d="M0 247.3L116.3 320L162.3 193.3Z" fill="#b88d2b" stroke="#b88d2b"></path><path d="M162.3 193.3L116.3 320L279.7 322Z" fill="#ca9929" stroke="#ca9929"></path><path d="M268.7 0L171.3 0L246.7 87.7Z" fill="#d7a126" stroke="#d7a126"></path><path d="M0 88.7L0 247.3L162.3 193.3Z" fill="#d7a126" stroke="#d7a126"></path><path d="M243.7 700L405 700L393 608.3Z" fill="#c59629" stroke="#c59629"></path><path d="M1049.7 378L1050.7 272.3L972.3 327Z" fill="#d39e27" stroke="#d39e27"></path><path d="M972.3 327L1050.7 272.3L897.3 217.3Z" fill="#ab852c" stroke="#ab852c"></path><path d="M962.3 436.7L1049.7 378L972.3 327Z" fill="#ce9b28" stroke="#ce9b28"></path><path d="M1092.7 460.7L1049.7 378L962.3 436.7Z" fill="#b88d2b" stroke="#b88d2b"></path><path d="M116.3 320L96.3 439.7L253.7 476.7Z" fill="#d7a126" stroke="#d7a126"></path><path d="M278.7 569.3L243.7 700L393 608.3Z" fill="#af882c" stroke="#af882c"></path><path d="M640.7 700L838 700L703.7 598.3Z" fill="#d7a126" stroke="#d7a126"></path><path d="M817 579.3L949.3 617.3L962.3 436.7Z" fill="#af882c" stroke="#af882c"></path><path d="M1200 200.3L1077.7 126.7L1050.7 272.3Z" fill="#b48b2b" stroke="#b48b2b"></path><path d="M1050.7 272.3L1077.7 126.7L897.3 217.3Z" fill="#ce9b28" stroke="#ce9b28"></path><path d="M838 700L949.3 617.3L817 579.3Z" fill="#b48b2b" stroke="#b48b2b"></path><path d="M96.3 439.7L123.3 555.3L253.7 476.7Z" fill="#d39e27" stroke="#d39e27"></path><path d="M1077.7 126.7L1048.7 0L896.3 127.7Z" fill="#b48b2b" stroke="#b48b2b"></path><path d="M123.3 555.3L243.7 700L278.7 569.3Z" fill="#c1932a" stroke="#c1932a"></path><path d="M1048.7 574.3L1092.7 460.7L962.3 436.7Z" fill="#d7a126" stroke="#d7a126"></path><path d="M1200 320L1200 200.3L1050.7 272.3Z" fill="#ca9929" stroke="#ca9929"></path><path d="M0 88.7L162.3 193.3L163.3 114.7Z" fill="#bd902a" stroke="#bd902a"></path><path d="M116.3 320L0 319L96.3 439.7Z" fill="#ca9929" stroke="#ca9929"></path><path d="M96.3 439.7L0 558.3L123.3 555.3Z" fill="#c59629" stroke="#c59629"></path><path d="M0 247.3L0 319L116.3 320Z" fill="#ab852c" stroke="#ab852c"></path><path d="M838 700L931.3 700L949.3 617.3Z" fill="#b48b2b" stroke="#b48b2b"></path><path d="M949.3 617.3L1048.7 574.3L962.3 436.7Z" fill="#bd902a" stroke="#bd902a"></path><path d="M1033.7 700L1048.7 574.3L949.3 617.3Z" fill="#d7a126" stroke="#d7a126"></path><path d="M171.3 0L0 88.7L163.3 114.7Z" fill="#d39e27" stroke="#d39e27"></path><path d="M0 319L0 435.7L96.3 439.7Z" fill="#b48b2b" stroke="#b48b2b"></path><path d="M123.3 555.3L102.3 700L243.7 700Z" fill="#c1932a" stroke="#c1932a"></path><path d="M171.3 0L0 0L0 88.7Z" fill="#b48b2b" stroke="#b48b2b"></path><path d="M1200 320L1050.7 272.3L1049.7 378Z" fill="#b88d2b" stroke="#b88d2b"></path><path d="M1077.7 126.7L1200 0L1048.7 0Z" fill="#b88d2b" stroke="#b88d2b"></path><path d="M1200 320L1049.7 378L1092.7 460.7Z" fill="#d39e27" stroke="#d39e27"></path><path d="M1200 487.7L1200 320L1092.7 460.7Z" fill="#ca9929" stroke="#ca9929"></path><path d="M931.3 700L1033.7 700L949.3 617.3Z" fill="#d7a126" stroke="#d7a126"></path><path d="M1048.7 574.3L1200 487.7L1092.7 460.7Z" fill="#b48b2b" stroke="#b48b2b"></path><path d="M1200 200.3L1200 115.7L1077.7 126.7Z" fill="#ca9929" stroke="#ca9929"></path><path d="M0 435.7L0 558.3L96.3 439.7Z" fill="#c1932a" stroke="#c1932a"></path><path d="M0 558.3L102.3 700L123.3 555.3Z" fill="#c59629" stroke="#c59629"></path><path d="M1200 602.3L1200 487.7L1048.7 574.3Z" fill="#bd902a" stroke="#bd902a"></path><path d="M1200 115.7L1200 0L1077.7 126.7Z" fill="#ce9b28" stroke="#ce9b28"></path><path d="M1033.7 700L1200 602.3L1048.7 574.3Z" fill="#ab852c" stroke="#ab852c"></path><path d="M0 558.3L0 700L102.3 700Z" fill="#b88d2b" stroke="#b88d2b"></path><path d="M1033.7 700L1200 700L1200 602.3Z" fill="#ca9929" stroke="#ca9929"></path></g></svg>