<svg id="visual" viewBox="0 0 1200 700" width="1200" height="700" xmlns="http://www.w3.org/2000/svg" xmlns:xlink="http://www.w3.org/1999/xlink" version="1.1"><rect width="1200" height="700" fill="#13e89a"></rect><g><g transform="translate(385 369)"><path d="M0 -89.1L77.2 -44.6L77.2 44.6L0 89.1L-77.2 44.6L-77.2 -44.6Z" fill="#24f476"></path></g><g transform="translate(1038 176)"><path d="M0 -47L40.7 -23.5L40.7 23.5L0 47L-40.7 23.5L-40.7 -23.5Z" fill="#24f476"></path></g><g transform="translate(668 252)"><path d="M0 -45L39 -22.5L39 22.5L0 45L-39 22.5L-39 -22.5Z" fill="#24f476"></path></g><g transform="translate(598 419)"><path d="M0 -43L37.2 -21.5L37.2 21.5L0 43L-37.2 21.5L-37.2 -21.5Z" fill="#24f476"></path></g><g transform="translate(104 548)"><path d="M0 -23L19.9 -11.5L19.9 11.5L0 23L-19.9 11.5L-19.9 -11.5Z" fill="#24f476"></path></g><g transform="translate(461 114)"><path d="M0 -46L39.8 -23L39.8 23L0 46L-39.8 23L-39.8 -23Z" fill="#24f476"></path></g><g transform="translate(930 546)"><path d="M0 -48L41.6 -24L41.6 24L0 48L-41.6 24L-41.6 -24Z" fill="#24f476"></path></g><g transform="translate(201 363)"><path d="M0 -26L22.5 -13L22.5 13L0 26L-22.5 13L-22.5 -13Z" fill="#24f476"></path></g></g></svg>