<svg id="visual" viewBox="0 0 1200 500" width="1200" height="500" xmlns="http://www.w3.org/2000/svg" xmlns:xlink="http://www.w3.org/1999/xlink" version="1.1"><rect width="1200" height="500" fill="#13e89a"></rect><g><g transform="translate(661 374)"><path d="M0 -75.3L65.2 -37.7L65.2 37.7L0 75.3L-65.2 37.7L-65.2 -37.7Z" fill="#24f476"></path></g><g transform="translate(850 354)"><path d="M0 -27L23.4 -13.5L23.4 13.5L0 27L-23.4 13.5L-23.4 -13.5Z" fill="#24f476"></path></g><g transform="translate(815 149)"><path d="M0 -72L62.4 -36L62.4 36L0 72L-62.4 36L-62.4 -36Z" fill="#24f476"></path></g><g transform="translate(1093 415)"><path d="M0 -43L37.2 -21.5L37.2 21.5L0 43L-37.2 21.5L-37.2 -21.5Z" fill="#24f476"></path></g><g transform="translate(114 340)"><path d="M0 -19L16.5 -9.5L16.5 9.5L0 19L-16.5 9.5L-16.5 -9.5Z" fill="#24f476"></path></g><g transform="translate(542 77)"><path d="M0 -13L11.3 -6.5L11.3 6.5L0 13L-11.3 6.5L-11.3 -6.5Z" fill="#24f476"></path></g><g transform="translate(215 129)"><path d="M0 -37L32 -18.5L32 18.5L0 37L-32 18.5L-32 -18.5Z" fill="#24f476"></path></g><g transform="translate(360 213)"><path d="M0 -66L57.2 -33L57.2 33L0 66L-57.2 33L-57.2 -33Z" fill="#24f476"></path></g></g></svg>