<svg id="visual" viewBox="0 0 1200 800" width="1200" height="800" xmlns="http://www.w3.org/2000/svg" xmlns:xlink="http://www.w3.org/1999/xlink" version="1.1"><path d="M0 73L120 73L120 89L240 89L240 73L360 73L360 97L480 97L480 105L600 105L600 89L720 89L720 73L840 73L840 113L960 113L960 65L1080 65L1080 113L1200 113L1200 81L1200 0L1200 0L1080 0L1080 0L960 0L960 0L840 0L840 0L720 0L720 0L600 0L600 0L480 0L480 0L360 0L360 0L240 0L240 0L120 0L120 0L0 0Z" fill="#fa7268"></path><path d="M0 281L120 281L120 313L240 313L240 193L360 193L360 265L480 265L480 281L600 281L600 377L720 377L720 233L840 233L840 321L960 321L960 249L1080 249L1080 321L1200 321L1200 217L1200 79L1200 111L1080 111L1080 63L960 63L960 111L840 111L840 71L720 71L720 87L600 87L600 103L480 103L480 95L360 95L360 71L240 71L240 87L120 87L120 71L0 71Z" fill="#ed6266"></path><path d="M0 497L120 497L120 545L240 545L240 409L360 409L360 545L480 545L480 497L600 497L600 513L720 513L720 497L840 497L840 449L960 449L960 537L1080 537L1080 433L1200 433L1200 529L1200 215L1200 319L1080 319L1080 247L960 247L960 319L840 319L840 231L720 231L720 375L600 375L600 279L480 279L480 263L360 263L360 191L240 191L240 311L120 311L120 279L0 279Z" fill="#df5265"></path><path d="M0 561L120 561L120 665L240 665L240 545L360 545L360 657L480 657L480 585L600 585L600 601L720 601L720 617L840 617L840 561L960 561L960 665L1080 665L1080 553L1200 553L1200 609L1200 527L1200 431L1080 431L1080 535L960 535L960 447L840 447L840 495L720 495L720 511L600 511L600 495L480 495L480 543L360 543L360 407L240 407L240 543L120 543L120 495L0 495Z" fill="#d04263"></path><path d="M0 713L120 713L120 745L240 745L240 697L360 697L360 737L480 737L480 745L600 745L600 745L720 745L720 745L840 745L840 697L960 697L960 745L1080 745L1080 713L1200 713L1200 729L1200 607L1200 551L1080 551L1080 663L960 663L960 559L840 559L840 615L720 615L720 599L600 599L600 583L480 583L480 655L360 655L360 543L240 543L240 663L120 663L120 559L0 559Z" fill="#c13361"></path><path d="M0 801L120 801L120 801L240 801L240 801L360 801L360 801L480 801L480 801L600 801L600 801L720 801L720 801L840 801L840 801L960 801L960 801L1080 801L1080 801L1200 801L1200 801L1200 727L1200 711L1080 711L1080 743L960 743L960 695L840 695L840 743L720 743L720 743L600 743L600 743L480 743L480 735L360 735L360 695L240 695L240 743L120 743L120 711L0 711Z" fill="#b0235f"></path></svg>