<svg id="visual" viewBox="0 0 1000 200" width="1000" height="200" xmlns="http://www.w3.org/2000/svg" xmlns:xlink="http://www.w3.org/1999/xlink" version="1.1"><path d="M0 35L23.8 34C47.7 33 95.3 31 143 28.7C190.7 26.3 238.3 23.7 286 23.3C333.7 23 381.3 25 428.8 26.3C476.3 27.7 523.7 28.3 571.2 27.7C618.7 27 666.3 25 714 22.7C761.7 20.3 809.3 17.7 857 16.7C904.7 15.7 952.3 16.3 976.2 16.7L1000 17L1000 0L976.2 0C952.3 0 904.7 0 857 0C809.3 0 761.7 0 714 0C666.3 0 618.7 0 571.2 0C523.7 0 476.3 0 428.8 0C381.3 0 333.7 0 286 0C238.3 0 190.7 0 143 0C95.3 0 47.7 0 23.8 0L0 0Z" fill="#d7a126"></path><path d="M0 59L23.8 63.7C47.7 68.3 95.3 77.7 143 82C190.7 86.3 238.3 85.7 286 83C333.7 80.3 381.3 75.7 428.8 74.7C476.3 73.7 523.7 76.3 571.2 75C618.7 73.7 666.3 68.3 714 67.7C761.7 67 809.3 71 857 79C904.7 87 952.3 99 976.2 105L1000 111L1000 15L976.2 14.7C952.3 14.3 904.7 13.7 857 14.7C809.3 15.7 761.7 18.3 714 20.7C666.3 23 618.7 25 571.2 25.7C523.7 26.3 476.3 25.7 428.8 24.3C381.3 23 333.7 21 286 21.3C238.3 21.7 190.7 24.3 143 26.7C95.3 29 47.7 31 23.8 32L0 33Z" fill="#bdb62c"></path><path d="M0 89L23.8 92.3C47.7 95.7 95.3 102.3 143 104C190.7 105.7 238.3 102.3 286 102C333.7 101.7 381.3 104.3 428.8 106C476.3 107.7 523.7 108.3 571.2 105.7C618.7 103 666.3 97 714 94C761.7 91 809.3 91 857 97.3C904.7 103.7 952.3 116.3 976.2 122.7L1000 129L1000 109L976.2 103C952.3 97 904.7 85 857 77C809.3 69 761.7 65 714 65.7C666.3 66.3 618.7 71.7 571.2 73C523.7 74.3 476.3 71.7 428.8 72.7C381.3 73.7 333.7 78.3 286 81C238.3 83.7 190.7 84.3 143 80C95.3 75.7 47.7 66.3 23.8 61.7L0 57Z" fill="#9dc946"></path><path d="M0 129L23.8 131.3C47.7 133.7 95.3 138.3 143 140.3C190.7 142.3 238.3 141.7 286 143C333.7 144.3 381.3 147.7 428.8 146.3C476.3 145 523.7 139 571.2 132.3C618.7 125.7 666.3 118.3 714 121.3C761.7 124.3 809.3 137.7 857 146.3C904.7 155 952.3 159 976.2 161L1000 163L1000 127L976.2 120.7C952.3 114.3 904.7 101.7 857 95.3C809.3 89 761.7 89 714 92C666.3 95 618.7 101 571.2 103.7C523.7 106.3 476.3 105.7 428.8 104C381.3 102.3 333.7 99.7 286 100C238.3 100.3 190.7 103.7 143 102C95.3 100.3 47.7 93.7 23.8 90.3L0 87Z" fill="#72da6c"></path><path d="M0 201L23.8 201C47.7 201 95.3 201 143 201C190.7 201 238.3 201 286 201C333.7 201 381.3 201 428.8 201C476.3 201 523.7 201 571.2 201C618.7 201 666.3 201 714 201C761.7 201 809.3 201 857 201C904.7 201 952.3 201 976.2 201L1000 201L1000 161L976.2 159C952.3 157 904.7 153 857 144.3C809.3 135.7 761.7 122.3 714 119.3C666.3 116.3 618.7 123.7 571.2 130.3C523.7 137 476.3 143 428.8 144.3C381.3 145.7 333.7 142.3 286 141C238.3 139.7 190.7 140.3 143 138.3C95.3 136.3 47.7 131.7 23.8 129.3L0 127Z" fill="#13e89a"></path></svg>