<svg id="visual" viewBox="0 0 1200 400" width="1200" height="400" xmlns="http://www.w3.org/2000/svg" xmlns:xlink="http://www.w3.org/1999/xlink" version="1.1"><rect x="0" y="0" width="1200" height="400" fill="#001829"></rect><g fill="#297EA6"><path d="M29.4 17L29.4 75.8L-29.4 75.8L-29.4 17L-80.4 -12.4L-50.9 -63.4L0 -34L50.9 -63.4L80.4 -12.4Z" transform="translate(1033 196)"></path><path d="M7.6 4.4L7.6 19.5L-7.6 19.5L-7.6 4.4L-20.6 -3.2L-13.1 -16.3L0 -8.7L13.1 -16.3L20.6 -3.2Z" transform="translate(387 233)"></path><path d="M8.4 4.8L8.4 21.6L-8.4 21.6L-8.4 4.8L-22.9 -3.5L-14.5 -18L0 -9.7L14.5 -18L22.9 -3.5Z" transform="translate(588 145)"></path><path d="M21.9 12.6L21.9 56.3L-21.9 56.3L-21.9 12.6L-59.7 -9.2L-37.9 -47.1L0 -25.2L37.9 -47.1L59.7 -9.2Z" transform="translate(117 209)"></path><path d="M18.6 10.8L18.6 48L-18.6 48L-18.6 10.8L-50.9 -7.9L-32.3 -40.1L0 -21.5L32.3 -40.1L50.9 -7.9Z" transform="translate(779 275)"></path></g></svg>