<svg id="visual" viewBox="0 0 1000 200" width="1000" height="200" xmlns="http://www.w3.org/2000/svg" xmlns:xlink="http://www.w3.org/1999/xlink" version="1.1"><rect x="0" y="0" width="1000" height="200" fill="#002233"></rect><path d="M0 90L33.3 94.8C66.7 99.7 133.3 109.3 200 106C266.7 102.7 333.3 86.3 400 82.8C466.7 79.3 533.3 88.7 600 97.5C666.7 106.3 733.3 114.7 800 114.8C866.7 115 933.3 107 966.7 103L1000 99L1000 0L966.7 0C933.3 0 866.7 0 800 0C733.3 0 666.7 0 600 0C533.3 0 466.7 0 400 0C333.3 0 266.7 0 200 0C133.3 0 66.7 0 33.3 0L0 0Z" fill="#0066FF" stroke-linecap="round" stroke-linejoin="miter"></path></svg>